PathFileType	4	(X/Y/Z)	/Users/itak/Documents/Research/Walk-IL/dataset/trc/00269_00010.trc
DataRate	CameraRate	NumFrames	NumMarkers	Units	OrigDataRate	OrigDataStartFrame	OrigNumFrames
100.000000	100.000000	4	53	mm	100.000000	391	447
Frame#	Time	RPSI			LPSI			L3			STRN			T10			C7			CLAV			RBAK			LBAK			LSHO			LUPA			LAEL			LAOL			LWTS			LWPS			LFRA			LHPS			LHTS			RSHO			RUPA			RAEL			RAOL			RWTS			RWPS			RFRA			RIFD			RHTS			RHPS			RBHD			LFHD			RFHD			LBHD			LHIP			RHIP			RASI			LKNE			LTHI			LANK			LTIP			LTOE			LMT1			LMT5			LHEE			RKNE			RTHI			RANK			RTIP			RTOE			RMT1			RMT5			RHEE			LIFD			LASI			
		X1	Y1	Z1	X2	Y2	Z2	X3	Y3	Z3	X4	Y4	Z4	X5	Y5	Z5	X6	Y6	Z6	X7	Y7	Z7	X8	Y8	Z8	X9	Y9	Z9	X10	Y10	Z10	X11	Y11	Z11	X12	Y12	Z12	X13	Y13	Z13	X14	Y14	Z14	X15	Y15	Z15	X16	Y16	Z16	X17	Y17	Z17	X18	Y18	Z18	X19	Y19	Z19	X20	Y20	Z20	X21	Y21	Z21	X22	Y22	Z22	X23	Y23	Z23	X24	Y24	Z24	X25	Y25	Z25	X26	Y26	Z26	X27	Y27	Z27	X28	Y28	Z28	X29	Y29	Z29	X30	Y30	Z30	X31	Y31	Z31	X32	Y32	Z32	X33	Y33	Z33	X34	Y34	Z34	X35	Y35	Z35	X36	Y36	Z36	X37	Y37	Z37	X38	Y38	Z38	X39	Y39	Z39	X40	Y40	Z40	X41	Y41	Z41	X42	Y42	Z42	X43	Y43	Z43	X44	Y44	Z44	X45	Y45	Z45	X46	Y46	Z46	X47	Y47	Z47	X48	Y48	Z48	X49	Y49	Z49	X50	Y50	Z50	X51	Y51	Z51	X52	Y52	Z52	X53	Y53	Z53	

392	3.91	-1365.014526367188	1018.493774414062	-30.17880821228027	-1360.955810546875	1008.554016113281	-204.7721405029297	-1340.086303710938	1080.537719726562	-128.6827697753906	-1083.21435546875	1248.016235351562	-138.8008880615234	-1349.552612304688	1185.785766601562	-137.5720520019531	-1305.209350585938	1431.035278320312	-162.4455871582031	-1145.0888671875	1349.516845703125	-147.5759124755859	-1358.196533203125	1296.160034179688	-83.02007293701172	-1318.193481445312	1389.457641601562	-266.7667541503906	-1224.413208007812	1397.258666992188	-316.3291931152344	-1249.677612304688	1278.95947265625	-388.5473022460938	-1248.974731445312	1076.84130859375	-407.0218505859375	-1314.648071289062	1063.954467773438	-351.095703125	-1161.151123046875	864.4775390625	-359.2855224609375	-1195.0126953125	850.742919921875	-422.2240905761719	-1232.802612304688	974.7603759765625	-415.4054565429688	-1184.544189453125	762.5213012695312	-420.3310852050781	-1130.471069335938	768.4636840820312	-381.9922180175781	-1242.1875	1413.742065429688	-1.173912525177002	-1254.375732421875	1362.04052734375	70.01749420166016	-1320.1083984375	1111.592407226562	136.7109680175781	-1340.78369140625	1097.916137695312	44.8001708984375	-1280.06494140625	864.4795532226562	133.1061248779297	-1333.077392578125	885.4744262695312	196.5241851806641	-1315.739013671875	1045.170532226562	162.1559600830078	-1337.849731445312	690.639892578125	157.0855407714844	-1313.407348632812	784.4409790039062	153.1807708740234	-1345.646606445312	773.774658203125	211.8386383056641	-1288.231567382812	1587.78955078125	-81.87611389160156	-1112.995239257812	1635.125610351562	-193.1293182373047	-1117.626586914062	1628.433959960938	-100.379264831543	-1279.574096679688	1587.848388671875	-227.9890594482422	-1295.115600585938	950.8388061523438	-297.72119140625	-1265.888305664062	966.9746704101562	76.75346374511719	-1149.005859375	963.329833984375	1.19407594203949	-1299.947509765625	486.2794799804688	-255.2533721923828	-1285.73974609375	627.3116455078125	-279.0928039550781	-1399.699340820312	47.37845230102539	-229.7128753662109	-1364.097778320312	268.7924194335938	-252.2973327636719	-1196.131103515625	52.54727554321289	-166.7186584472656	-1265.503051757812	38.77138137817383	-128.9685821533203	-1273.565673828125	49.99072647094727	-240.9475402832031	-1447.972045898438	42.32863998413086	-172.0956420898438	-1228.498046875	488.1313781738281	52.68179321289062	-1207.570190429688	750.69921875	78.28071594238281	-1329.388061523438	50.05573654174805	50.32830810546875	-1228.648681640625	362.448486328125	42.02716827392578	-1139.516479492188	56.88975524902344	-15.15319156646729	-1196.441162109375	45.92352676391602	-50.62809753417969	-1222.2646484375	49.36431884765625	65.71702575683594	-1385.905883789062	45.22452545166016	0.9761171936988831	-1145.182250976562	677.079345703125	-363.8611145019531	-1153.75146484375	946.461181640625	-253.2021789550781	
393	3.92	-1367.456298828125	1018.526794433594	-31.86980628967285	-1363.8447265625	1008.591979980469	-206.4852905273438	-1342.459838867188	1080.497192382812	-130.2726287841797	-1085.38232421875	1247.760009765625	-140.3489227294922	-1351.809204101562	1185.887939453125	-139.0703887939453	-1307.286987304688	1431.122802734375	-163.7001647949219	-1147.161865234375	1349.273315429688	-149.0092926025391	-1360.409790039062	1296.223754882812	-84.42205810546875	-1320.29345703125	1389.583984375	-268.1416931152344	-1226.486328125	1397.295166015625	-317.5898132324219	-1251.073974609375	1279.068359375	-390.1127624511719	-1248.634887695312	1076.964477539062	-409.5276489257812	-1314.789428710938	1063.39208984375	-354.233154296875	-1157.956176757812	866.2651977539062	-361.8094787597656	-1191.068237304688	852.2026977539062	-425.0357666015625	-1230.972290039062	975.4317626953125	-418.091796875	-1178.943481445312	764.1891479492188	-423.4063415527344	-1125.343017578125	770.9423217773438	-384.7409057617188	-1244.143920898438	1413.464721679688	-2.466206073760986	-1256.2353515625	1361.510864257812	68.56699371337891	-1322.18359375	1110.987182617188	134.6575927734375	-1343.202758789062	1097.746215820312	42.74795150756836	-1281.114990234375	864.1239013671875	129.1790466308594	-1333.869140625	884.2410888671875	193.0743560791016	-1317.636108398438	1044.31591796875	159.6260070800781	-1337.79248046875	689.7470703125	151.3568878173828	-1313.187622070312	782.7420654296875	148.6794891357422	-1345.778198242188	772.1755981445312	207.1471557617188	-1290.576904296875	1587.530151367188	-82.9132080078125	-1115.335571289062	1635.397705078125	-193.9557037353516	-1120.034545898438	1628.5439453125	-101.2361907958984	-1281.80126953125	1587.880004882812	-229.0683746337891	-1298.287841796875	950.6963500976562	-299.5547485351562	-1268.023559570312	966.9463500976562	74.73429107666016	-1151.251586914062	963.0317993164062	-0.9723925590515137	-1303.945434570312	486.3058776855469	-256.3889465332031	-1290.181884765625	627.3689575195312	-280.453369140625	-1399.857421875	47.02899932861328	-229.983154296875	-1366.44091796875	268.7232666015625	-252.9243011474609	-1196.313232421875	52.75798416137695	-166.8461303710938	-1265.700805664062	39.06805419921875	-129.1778564453125	-1273.664184570312	49.89615631103516	-241.17724609375	-1448.150146484375	42.0128288269043	-172.3134765625	-1229.530029296875	488.4763488769531	51.85994720458984	-1209.342895507812	751.0178833007812	76.90241241455078	-1329.426513671875	50.07681655883789	50.34060287475586	-1229.4599609375	362.7790222167969	41.71864700317383	-1139.638671875	57.31369400024414	-14.84012317657471	-1196.54296875	46.20151138305664	-50.44818878173828	-1222.357666015625	49.44139862060547	65.96479034423828	-1385.898681640625	45.26963424682617	0.8964323997497559	-1138.371337890625	679.260986328125	-367.0562744140625	-1156.864501953125	946.155517578125	-255.3437957763672	
394	3.93	-1369.90283203125	1018.603576660156	-33.49171447753906	-1366.71484375	1008.712158203125	-208.1279296875	-1344.846923828125	1080.546020507812	-131.7912445068359	-1087.4755859375	1247.593994140625	-141.7943267822266	-1354.09033203125	1186.052490234375	-140.5023803710938	-1309.34716796875	1431.256713867188	-164.9136047363281	-1149.235595703125	1349.091552734375	-150.3670349121094	-1362.634521484375	1296.329956054688	-85.80152130126953	-1322.372680664062	1389.760009765625	-269.4638366699219	-1228.546020507812	1397.35498046875	-318.8146362304688	-1252.577026367188	1279.1923828125	-391.6108703613281	-1248.416381835938	1077.1005859375	-411.9220886230469	-1314.961669921875	1062.858764648438	-357.1655883789062	-1154.921264648438	868.11083984375	-364.2638549804688	-1187.359497070312	853.7258911132812	-427.7518005371094	-1229.307373046875	976.1373291015625	-420.6655883789062	-1173.54736328125	765.9449462890625	-426.3702087402344	-1120.431884765625	773.533447265625	-387.4597473144531	-1246.1572265625	1413.228515625	-3.690000295639038	-1258.152099609375	1360.976684570312	67.15732574462891	-1324.035766601562	1110.321411132812	132.6685180664062	-1345.481201171875	1097.511962890625	40.77109909057617	-1281.6787109375	863.7783813476562	125.1405181884766	-1334.100341796875	882.9178466796875	189.5902709960938	-1319.219482421875	1043.381958007812	157.1412963867188	-1337.017822265625	688.8106079101562	145.520263671875	-1312.223388671875	780.9359130859375	144.1069946289062	-1345.165405273438	770.4694213867188	202.3844604492188	-1292.859252929688	1587.351684570312	-83.93818664550781	-1117.59619140625	1635.692138671875	-194.7526397705078	-1122.37451171875	1628.689575195312	-102.0607528686523	-1283.957641601562	1587.974243164062	-230.1270599365234	-1301.401977539062	950.6697998046875	-301.2989196777344	-1270.207763671875	966.9368896484375	72.79225921630859	-1153.505249023438	962.81787109375	-3.037952423095703	-1307.124267578125	486.2956848144531	-257.5500183105469	-1293.9521484375	627.4202270507812	-281.8343200683594	-1399.958374023438	46.7613410949707	-230.1938323974609	-1368.238403320312	268.5821533203125	-253.5443115234375	-1196.41455078125	52.73499298095703	-166.8108978271484	-1265.851806640625	39.1909065246582	-129.2810821533203	-1273.743408203125	49.83393096923828	-241.2835388183594	-1448.296997070312	41.82442092895508	-172.5008087158203	-1230.63427734375	488.8453979492188	51.09243011474609	-1211.070922851562	751.38134765625	75.55558013916016	-1329.50048828125	50.1102294921875	50.36668395996094	-1230.35693359375	363.1690979003906	41.46635818481445	-1139.76416015625	57.76322174072266	-14.49662590026855	-1196.6630859375	46.49804306030273	-50.27267074584961	-1222.438232421875	49.50022125244141	66.21544647216797	-1385.900146484375	45.31012344360352	0.8489921092987061	-1131.713256835938	681.5520629882812	-370.217529296875	-1159.945556640625	945.9920654296875	-257.3521118164062	
395	3.94	-1372.33154296875	1018.737121582031	-35.02041244506836	-1369.55517578125	1008.919738769531	-209.6789855957031	-1347.247680664062	1080.70263671875	-133.2255401611328	-1089.494262695312	1247.541625976562	-143.1368255615234	-1356.386108398438	1186.289306640625	-141.8645477294922	-1311.3935546875	1431.4462890625	-166.077880859375	-1151.3369140625	1348.97705078125	-151.642822265625	-1364.876708984375	1296.494873046875	-87.14547729492188	-1324.431274414062	1390.004272460938	-270.7197570800781	-1230.59228515625	1397.467407226562	-319.9896850585938	-1254.185180664062	1279.364868164062	-393.0379638671875	-1248.318969726562	1077.29443359375	-414.1903076171875	-1315.153198242188	1062.392822265625	-359.8674011230469	-1152.053588867188	870.0244140625	-366.6450500488281	-1183.90966796875	855.313720703125	-430.3648071289062	-1227.819458007812	976.901123046875	-423.1174011230469	-1168.407348632812	767.7880249023438	-429.2178344726562	-1115.77197265625	776.23388671875	-390.1498413085938	-1248.228515625	1413.053588867188	-4.841682910919189	-1260.133911132812	1360.468017578125	65.79942321777344	-1325.672607421875	1109.616577148438	130.7340087890625	-1347.604370117188	1097.220825195312	38.86458969116211	-1281.765014648438	863.4590454101562	121.0136871337891	-1333.789306640625	881.5445556640625	186.0813751220703	-1320.4892578125	1042.388549804688	154.6998443603516	-1335.56884765625	687.8660888671875	139.6569213867188	-1310.5498046875	779.0865478515625	139.5092620849609	-1343.84326171875	768.7199096679688	197.5965270996094	-1295.081176757812	1587.267211914062	-84.94853973388672	-1119.776611328125	1636.013305664062	-195.5247344970703	-1124.644653320312	1628.873168945312	-102.8545989990234	-1286.047119140625	1588.129028320312	-231.1558837890625	-1304.449584960938	950.7644653320312	-302.9370422363281	-1272.40625	966.96240234375	70.94427490234375	-1155.765258789062	962.7105712890625	-5.010945320129395	-1309.528198242188	486.2469482421875	-258.7149963378906	-1297.034057617188	627.4545288085938	-283.218994140625	-1400.011962890625	46.56829833984375	-230.3414916992188	-1369.515869140625	268.3782958984375	-254.1412811279297	-1196.4384765625	52.49104690551758	-166.6257934570312	-1265.956787109375	39.13750076293945	-129.2861175537109	-1273.808959960938	49.80408477783203	-241.2708129882812	-1448.4072265625	41.72379302978516	-172.6457672119141	-1231.795654296875	489.2412109375	50.36347961425781	-1212.758178710938	751.8001098632812	74.22896575927734	-1329.607177734375	50.16330718994141	50.39864730834961	-1231.322387695312	363.6155090332031	41.24716567993164	-1139.88623046875	58.22854995727539	-14.14145469665527	-1196.7998046875	46.80420303344727	-50.10676574707031	-1222.508666992188	49.54420471191406	66.45599365234375	-1385.909301757812	45.35082626342773	0.8283334374427795	-1125.287353515625	683.943115234375	-373.33837890625	-1162.958618164062	945.9873046875	-259.2565307617188	
